<mxfile host="Electron" modified="2024-07-09T16:08:46.082Z" agent="Mozilla/5.0 (Windows NT 10.0; Win64; x64) AppleWebKit/537.36 (KHTML, like Gecko) draw.io/24.6.4 Chrome/124.0.6367.207 Electron/30.0.6 Safari/537.36" etag="dM52h7ORUHh-uQtgJsVW" version="24.6.4" type="device">
  <diagram name="Seite-1" id="NwcWuR-mgWnYf0p7Uhna">
    <mxGraphModel dx="1036" dy="614" grid="1" gridSize="10" guides="1" tooltips="1" connect="1" arrows="1" fold="1" page="1" pageScale="1" pageWidth="827" pageHeight="1169" math="0" shadow="0">
      <root>
        <mxCell id="0" />
        <mxCell id="1" parent="0" />
        <mxCell id="OQtJD34ANyuCAwRn3eNC-4" value="SPI" style="edgeStyle=orthogonalEdgeStyle;rounded=0;orthogonalLoop=1;jettySize=auto;html=1;" edge="1" parent="1" source="OQtJD34ANyuCAwRn3eNC-2" target="OQtJD34ANyuCAwRn3eNC-3">
          <mxGeometry relative="1" as="geometry" />
        </mxCell>
        <mxCell id="OQtJD34ANyuCAwRn3eNC-6" value="UART" style="edgeStyle=orthogonalEdgeStyle;rounded=0;orthogonalLoop=1;jettySize=auto;html=1;entryX=0.5;entryY=0;entryDx=0;entryDy=0;" edge="1" parent="1" source="OQtJD34ANyuCAwRn3eNC-2" target="OQtJD34ANyuCAwRn3eNC-5">
          <mxGeometry relative="1" as="geometry" />
        </mxCell>
        <mxCell id="OQtJD34ANyuCAwRn3eNC-2" value="Raspberry Pi Pico" style="rounded=1;whiteSpace=wrap;html=1;" vertex="1" parent="1">
          <mxGeometry x="220" y="170" width="120" height="60" as="geometry" />
        </mxCell>
        <mxCell id="OQtJD34ANyuCAwRn3eNC-3" value="LoRa Concentrator" style="rounded=1;whiteSpace=wrap;html=1;" vertex="1" parent="1">
          <mxGeometry x="430" y="170" width="120" height="60" as="geometry" />
        </mxCell>
        <mxCell id="OQtJD34ANyuCAwRn3eNC-5" value="LTE Module" style="rounded=1;whiteSpace=wrap;html=1;" vertex="1" parent="1">
          <mxGeometry x="220" y="310" width="120" height="60" as="geometry" />
        </mxCell>
      </root>
    </mxGraphModel>
  </diagram>
</mxfile>
